<?xml version="1.0" encoding="utf-8"?>
<!-- Generator: Adobe Illustrator 22.0.0, SVG Export Plug-In . SVG Version: 6.00 Build 0)  -->
<svg version="1.1" id="Layer_1" xmlns="http://www.w3.org/2000/svg" xmlns:xlink="http://www.w3.org/1999/xlink" x="0px" y="0px"
	 viewBox="0 0 54 54" style="enable-background:new 0 0 54 54;" xml:space="preserve">
<style type="text/css">
	.st0{fill:#010101;}
</style>
<path class="st0" d="M15.9,10.1c1.6,0,3,0.1,4.3,0.4c1.3,0.3,2.4,0.7,3.3,1.4c0.9,0.6,1.6,1.5,2.2,2.5c0.5,1,0.8,2.3,0.8,3.9
	c0,1.7-0.4,3.1-1.1,4.2c-0.8,1.1-1.9,2-3.4,2.7c2,0.6,3.5,1.6,4.5,3.1c1,1.5,1.5,3.2,1.5,5.3c0,1.7-0.3,3.1-1,4.3
	c-0.6,1.2-1.5,2.2-2.6,3c-1.1,0.8-2.4,1.3-3.8,1.7c-1.4,0.4-2.8,0.6-4.3,0.6h-16V10.1H15.9z M14.9,23.4c1.3,0,2.4-0.3,3.2-0.9
	c0.8-0.6,1.2-1.6,1.2-3c0-0.8-0.1-1.4-0.4-1.9c-0.3-0.5-0.7-0.9-1.1-1.2c-0.5-0.3-1-0.5-1.6-0.6c-0.6-0.1-1.2-0.2-1.9-0.2H7.6v7.7
	H14.9z M15.3,37.5c0.7,0,1.4-0.1,2-0.2c0.7-0.1,1.2-0.4,1.7-0.7c0.5-0.3,0.9-0.8,1.2-1.3c0.3-0.6,0.4-1.3,0.4-2.1
	c0-1.7-0.5-2.9-1.4-3.6c-1-0.7-2.2-1.1-3.8-1.1H7.6v9.1H15.3z"/>
<path class="st0" d="M38.3,37.4c1,1,2.4,1.4,4.3,1.4c1.3,0,2.5-0.3,3.4-1c1-0.7,1.5-1.4,1.8-2.1h5.8c-0.9,2.9-2.3,4.9-4.3,6.2
	c-1.9,1.2-4.2,1.9-6.9,1.9c-1.9,0-3.6-0.3-5.1-0.9c-1.5-0.6-2.8-1.5-3.9-2.6c-1-1.1-1.9-2.4-2.4-4c-0.6-1.5-0.9-3.3-0.9-5.1
	c0-1.8,0.3-3.5,0.9-5c0.6-1.5,1.4-2.9,2.5-4c1.1-1.1,2.4-2,3.9-2.7c1.5-0.6,3.2-1,5-1c2,0,3.8,0.4,5.3,1.2c1.5,0.8,2.8,1.8,3.7,3.2
	c1,1.3,1.7,2.8,2.1,4.5c0.4,1.7,0.6,3.5,0.5,5.3H36.7C36.7,34.6,37.4,36.4,38.3,37.4z M45.9,24.8c-0.8-0.9-2.1-1.3-3.7-1.3
	c-1,0-1.9,0.2-2.6,0.5c-0.7,0.4-1.2,0.8-1.7,1.3c-0.4,0.5-0.7,1.1-0.9,1.7c-0.2,0.6-0.3,1.1-0.3,1.6h10.7
	C47.3,26.9,46.7,25.7,45.9,24.8z"/>
<rect x="35.4" y="12.3" class="st0" width="13.4" height="3.3"/>
</svg>
