<?xml version="1.0" encoding="utf-8"?>
<!-- Generator: Adobe Illustrator 22.0.0, SVG Export Plug-In . SVG Version: 6.00 Build 0)  -->
<svg version="1.1" id="Layer_1" xmlns="http://www.w3.org/2000/svg" xmlns:xlink="http://www.w3.org/1999/xlink" x="0px" y="0px"
	 viewBox="0 0 54 54" style="enable-background:new 0 0 54 54;" xml:space="preserve">
<style type="text/css">
	.st0{fill:#FFFFFF;}
</style>
<path class="st0" d="M27.2,0.7c-14.9,0-27,12.1-27,27c0,11.9,7.7,22,18.4,25.6c1.3,0.2,1.8-0.6,1.8-1.3c0-0.6,0-2.3,0-4.6
	c-7.5,1.6-9.1-3.6-9.1-3.6c-1.2-3.1-3-3.9-3-3.9c-2.4-1.7,0.2-1.6,0.2-1.6c2.7,0.2,4.1,2.7,4.1,2.7c2.4,4.1,6.3,2.9,7.9,2.2
	c0.2-1.7,0.9-2.9,1.7-3.6c-6-0.7-12.3-3-12.3-13.3c0-2.9,1-5.4,2.7-7.3c-0.3-0.7-1.2-3.4,0.3-7.2c0,0,2.2-0.7,7.4,2.7
	c2.1-0.6,4.4-0.9,6.8-0.9s4.6,0.3,6.8,0.9c5.2-3.5,7.4-2.7,7.4-2.7c1.5,3.7,0.5,6.5,0.3,7.2c1.7,1.9,2.7,4.2,2.7,7.3
	c0,10.3-6.3,12.6-12.3,13.3c1,0.8,1.8,2.5,1.8,5c0,3.6,0,6.5,0,7.4c0,0.7,0.5,1.5,1.8,1.3C46.3,49.6,54,39.5,54,27.6
	C54.2,12.8,42.1,0.7,27.2,0.7z"/>
</svg>
