<?xml version="1.0" encoding="utf-8"?>
<!-- Generator: Adobe Illustrator 22.0.0, SVG Export Plug-In . SVG Version: 6.00 Build 0)  -->
<svg version="1.1" id="Layer_1" xmlns="http://www.w3.org/2000/svg" xmlns:xlink="http://www.w3.org/1999/xlink" x="0px" y="0px"
	 viewBox="0 0 54 54" style="enable-background:new 0 0 54 54;" xml:space="preserve">
<g>
	<path d="M34.9,38.5c-3.1,0-4.9-1.1-5.5-3.2c-2,2-3.7,3.2-6.6,3.2c-4.2,0-6.1-3.1-6.1-7.4c0-7.9,4.6-15.1,10.1-15.1
		c2.6,0,4.5,0.6,5.7,1.9c0.3-0.6,0.5-1.4,1.3-1.4h4.4c0.8,0,0.7,0.6,0.6,1.1l-2.6,12.8c-0.3,1.7-0.2,2.6,1.5,2.6
		c3.3,0,6.5-6.2,6.5-11.9c0-6.7-4.7-12-13.9-12c-12,0-20.1,9.4-20.1,21.2c0,10.8,7.6,14.2,16,14.2c5.8,0,10.8-1,15.6-3.2
		c0.5-0.2,1.3-0.7,1.6,0.1l1.5,4.1c0.3,0.9,0.1,1.1-0.6,1.6c-3.6,2.3-11.2,4-17.9,4C13,51,3.1,44.4,3.1,30.1C3.1,14.2,15.4,3,30.6,3
		C42.8,3,51,9.6,51,20.6C51,31.6,43.6,38.5,34.9,38.5z M28.1,21.7c-2.6,0-3.8,6.7-3.8,8.9c0,1.5,0.2,2.2,1.6,2.2
		c1.5,0,3.6-2,4.2-5.3l0.8-4.4C30.2,22.4,29.1,21.7,28.1,21.7z"/>
</g>
</svg>
