<?xml version="1.0" encoding="utf-8"?>
<!-- Generator: Adobe Illustrator 22.0.0, SVG Export Plug-In . SVG Version: 6.00 Build 0)  -->
<svg version="1.1" id="Layer_1" xmlns="http://www.w3.org/2000/svg" xmlns:xlink="http://www.w3.org/1999/xlink" x="0px" y="0px"
	 viewBox="0 0 54 54" style="enable-background:new 0 0 54 54;" xml:space="preserve">
<style type="text/css">
	.st0{fill:#010101;}
</style>
<g>
	<path class="st0" d="M27,4.9c7.2,0,8.1,0,10.9,0.2C40.6,5.1,42,5.6,43,6c1.3,0.5,2.2,1.1,3.1,2c0.9,0.9,1.5,1.8,2,3.1
		c0.4,1,0.8,2.4,0.9,5c0.1,2.8,0.2,3.7,0.2,10.9s0,8.1-0.2,10.9c-0.1,2.6-0.6,4.1-0.9,5c-0.5,1.3-1.1,2.2-2,3.1
		c-0.9,0.9-1.8,1.5-3.1,2c-1,0.4-2.4,0.8-5,0.9c-2.8,0.1-3.7,0.2-10.9,0.2s-8.1,0-10.9-0.2c-2.6-0.1-4.1-0.6-5-0.9
		C9.9,47.6,9,47,8,46c-0.9-0.9-1.5-1.8-2-3.1c-0.4-1-0.8-2.4-0.9-5C4.9,35.1,4.9,34.2,4.9,27s0-8.1,0.2-10.9c0.1-2.6,0.6-4.1,0.9-5
		C6.5,9.8,7.1,8.9,8,8C9,7,9.9,6.4,11.1,6c1-0.4,2.4-0.8,5-0.9C19,4.9,19.8,4.9,27,4.9 M27,0c-7.3,0-8.3,0-11.1,0.2
		C13,0.3,11.1,0.8,9.4,1.4C7.6,2.1,6.1,3,4.6,4.5C3.1,6,2.1,7.5,1.5,9.3C0.8,11,0.3,13,0.2,15.9C0.1,18.7,0,19.7,0,27
		c0,7.3,0,8.3,0.2,11.1C0.3,41,0.8,43,1.5,44.7c0.7,1.8,1.6,3.3,3.1,4.8c1.5,1.5,3,2.4,4.8,3.1c1.7,0.7,3.7,1.1,6.6,1.3
		C18.8,54,19.7,54,27,54s8.3,0,11.1-0.2c2.9-0.1,4.8-0.6,6.6-1.3c1.8-0.7,3.3-1.6,4.8-3.1c1.5-1.5,2.4-3,3.1-4.8
		c0.7-1.7,1.1-3.7,1.3-6.6C54,35.3,54,34.3,54,27s0-8.3-0.2-11.1c-0.1-2.9-0.6-4.8-1.3-6.6C51.9,7.5,51,6,49.5,4.5
		c-1.5-1.5-3-2.4-4.8-3.1C43,0.8,41,0.3,38.2,0.2C35.3,0,34.4,0,27,0L27,0z"/>
	<path class="st0" d="M27,13.1c-7.7,0-13.9,6.2-13.9,13.9S19.4,40.9,27,40.9S40.9,34.7,40.9,27S34.7,13.1,27,13.1z M27,36
		c-5,0-9-4-9-9c0-5,4-9,9-9s9,4,9,9C36,32,32,36,27,36z"/>
	<circle class="st0" cx="41.5" cy="12.6" r="3.2"/>
</g>
</svg>
