<?xml version="1.0" encoding="utf-8"?>
<!-- Generator: Adobe Illustrator 22.0.0, SVG Export Plug-In . SVG Version: 6.00 Build 0)  -->
<svg version="1.1" id="Layer_1" xmlns="http://www.w3.org/2000/svg" xmlns:xlink="http://www.w3.org/1999/xlink" x="0px" y="0px"
	 viewBox="0 0 54 54" style="enable-background:new 0 0 54 54;" xml:space="preserve">
<style type="text/css">
	.st0{fill:#FFFFFF;}
</style>
<path class="st0" d="M49.9,0h-46c-2.2,0-4,1.7-4,3.9v46.2c0,2.2,1.8,3.9,4,3.9h46c2.2,0,4-1.7,4-3.9V3.9C53.9,1.7,52.2,0,49.9,0z
	 M16,46H8V20.2h8V46z M12,16.7c-2.6,0-4.6-2.1-4.6-4.6c0-2.6,2.1-4.6,4.6-4.6c2.6,0,4.6,2.1,4.6,4.6S14.5,16.7,12,16.7z M46,46h-8
	V33.5c0-3-0.1-6.8-4.2-6.8c-4.2,0-4.8,3.3-4.8,6.6V46h-8V20.2h7.7v3.5h0.1c1.1-2,3.7-4.2,7.6-4.2c8.1,0,9.6,5.3,9.6,12.3V46z"/>
</svg>
